<?xml version="1.0" standalone="no"?><!DOCTYPE svg PUBLIC "-//W3C//DTD SVG 1.1//EN" "http://www.w3.org/Graphics/SVG/1.1/DTD/svg11.dtd"><svg t="1519816268351" class="icon" style="" viewBox="0 0 1024 1024" version="1.1" xmlns="http://www.w3.org/2000/svg" p-id="1060" xmlns:xlink="http://www.w3.org/1999/xlink" width="200" height="200"><defs><style type="text/css"></style></defs><path d="M428.539658 833.494155c0 15.954367-13.053294 29.007661-29.007661 29.007661L285.613458 862.501816c-15.954367 0-29.007661-13.053294-29.007661-29.007661l0-639.423111c0-15.954367 13.053294-29.007661 29.007661-29.007661l113.918539 0c15.954367 0 29.007661 13.053294 29.007661 29.007661L428.539658 833.494155z" p-id="1061" fill="#13227a"></path><path d="M760.124635 833.494155c0 15.954367-13.053294 29.007661-29.007661 29.007661l-113.918539 0c-15.954367 0-29.007661-13.053294-29.007661-29.007661l0-639.423111c0-15.954367 13.053294-29.007661 29.007661-29.007661l113.918539 0c15.954367 0 29.007661 13.053294 29.007661 29.007661L760.124635 833.494155z" p-id="1062" fill="#13227a"></path></svg>