<?xml version="1.0" standalone="no"?><!DOCTYPE svg PUBLIC "-//W3C//DTD SVG 1.1//EN" "http://www.w3.org/Graphics/SVG/1.1/DTD/svg11.dtd"><svg t="1519888731267" class="icon" style="" viewBox="0 0 1024 1024" version="1.1" xmlns="http://www.w3.org/2000/svg" p-id="1932" xmlns:xlink="http://www.w3.org/1999/xlink" width="200" height="200"><defs><style type="text/css"></style></defs><path d="M511.219 58.483l-227.213 227.313h-161.038c-41.846 0-75.781 33.935-75.781 75.781v303.097c0 41.882 33.935 75.782 75.781 75.782h161.037l227.213 227.377c41.845 0 75.748-33.934 75.748-75.78v-757.789c0.001-41.846-33.901-75.781-75.746-75.781zM511.219 889.427l-198.83-219.372h-189.421v-303.093h189.421l198.83-219.402v741.868z" p-id="1933" fill="#13227a"></path><path d="M960.31 546.395c7.483 0 13.534-14.892 13.534-33.239s-6.051-33.239-13.534-33.239h-94.755c-7.482 0-13.533 14.889-13.533 33.239 0 18.347 6.051 33.239 13.533 33.239h94.755z" p-id="1934" fill="#13227a"></path><path d="M970.582 116.844c6.484-3.743 4.277-19.663-4.897-35.552s-21.858-25.759-28.341-22.017l-82.059 47.376c-6.483 3.743-4.277 19.663 4.897 35.552s21.859 25.758 28.342 22.016l82.058-47.375z" p-id="1935" fill="#13227a"></path><path d="M970.582 909.47c6.484 3.743 4.277 19.662-4.897 35.553-9.174 15.888-21.858 25.759-28.341 22.016l-82.059-47.376c-6.483-3.743-4.277-19.662 4.897-35.552 9.174-15.889 21.859-25.758 28.342-22.016l82.058 47.375z" p-id="1936" fill="#13227a"></path><path d="M640.286 683.412c-6.756-18.186-4.889-35.436 13.299-42.194 45.93-21.204 67.853-62.464 73.459-114.215 6.541-60.379-22.355-115.869-72.24-138.725-16.317-10.496-23.073-28.677-12.579-44.995 10.497-16.316 28.683-23.073 44.995-12.579 73.893 42.911 118.17 117.522 108.828 203.777-7.477 69.002-49.452 134.269-113.569 162.23-14.983 8.481-35.070 2.914-42.193-13.294z" p-id="1937" fill="#13227a"></path></svg>